<svg width="24" height="25" viewBox="0 0 24 25" fill="none" xmlns="http://www.w3.org/2000/svg">
<g clip-path="url(#clip0_951_5163)">
<path d="M12 0.5C9.21628 0.50344 6.54756 1.61079 4.57918 3.57918C2.61079 5.54756 1.50344 8.21628 1.5 11C1.5 13.826 3.7 17.766 8.041 22.709C8.53604 23.2715 9.14526 23.7222 9.82808 24.0308C10.5109 24.3395 11.2517 24.4992 12.001 24.4992C12.7503 24.4992 13.4911 24.3395 14.1739 24.0308C14.8567 23.7222 15.466 23.2715 15.961 22.709C20.3 17.767 22.5 13.827 22.5 11C22.4966 8.21628 21.3892 5.54756 19.4208 3.57918C17.4524 1.61079 14.7837 0.50344 12 0.5ZM13.706 20.731C13.4879 20.9654 13.2239 21.1524 12.9304 21.2802C12.6369 21.4081 12.3202 21.474 12 21.474C11.6798 21.474 11.3631 21.4081 11.0696 21.2802C10.7761 21.1524 10.5121 20.9654 10.294 20.731C6.611 16.536 4.494 12.989 4.494 11.001C4.494 9.01188 5.28418 7.10422 6.6907 5.6977C8.09722 4.29118 10.0049 3.501 11.994 3.501C13.9831 3.501 15.8908 4.29118 17.2973 5.6977C18.7038 7.10422 19.494 9.01188 19.494 11.001C19.5 12.989 17.389 16.536 13.706 20.731Z" fill="#D6A67B"/>
<path d="M11.9997 6.55518C11.1368 6.55518 10.2933 6.81106 9.57577 7.29047C8.85828 7.76989 8.29906 8.45129 7.96883 9.24853C7.63861 10.0458 7.55221 10.923 7.72055 11.7694C7.8889 12.6157 8.30444 13.3931 8.91461 14.0033C9.52479 14.6135 10.3022 15.029 11.1485 15.1973C11.9949 15.3657 12.8721 15.2793 13.6694 14.9491C14.4666 14.6188 15.148 14.0596 15.6274 13.3421C16.1068 12.6246 16.3627 11.7811 16.3627 10.9182C16.3614 9.76144 15.9013 8.65247 15.0834 7.83453C14.2654 7.0166 13.1565 6.5565 11.9997 6.55518ZM11.9997 12.2812C11.7301 12.2812 11.4666 12.2012 11.2425 12.0515C11.0183 11.9017 10.8436 11.6888 10.7405 11.4398C10.6373 11.1907 10.6103 10.9167 10.6629 10.6523C10.7155 10.3879 10.8453 10.145 11.0359 9.95439C11.2266 9.76377 11.4694 9.63396 11.7338 9.58137C11.9982 9.52877 12.2723 9.55577 12.5213 9.65893C12.7704 9.76209 12.9832 9.93679 13.133 10.1609C13.2828 10.3851 13.3627 10.6486 13.3627 10.9182C13.3625 11.2796 13.2188 11.6261 12.9632 11.8817C12.7077 12.1372 12.3611 12.2809 11.9997 12.2812Z" fill="#D6A67B"/>
</g>
<defs>
<clipPath id="clip0_951_5163">
<rect width="24" height="24" fill="white" transform="translate(0 0.5)"/>
</clipPath>
</defs>
</svg>
