<svg width="24" height="25" viewBox="0 0 24 25" fill="none" xmlns="http://www.w3.org/2000/svg">
<g clip-path="url(#clip0_1000_96)">
<path d="M10.2746 22.9021C10.2746 23.7234 9.61678 24.3881 8.80404 24.3881H5.86286C2.88933 24.3881 0.470703 21.9441 0.470703 18.9394V8.04195C0.470703 5.03723 2.88933 2.59323 5.86286 2.59323H6.35306V2.09789C6.35306 1.27662 7.0109 0.611877 7.82364 0.611877C8.63639 0.611877 9.29423 1.27662 9.29423 2.09789V2.59323H15.1766V2.09789C15.1766 1.27662 15.8354 0.611877 16.6472 0.611877C17.4589 0.611877 18.1178 1.27662 18.1178 2.09789V2.59323H18.608C21.5805 2.59323 24.0001 5.03723 24.0001 8.04195C24.0001 8.86322 23.3413 9.52796 22.5295 9.52796H3.41188V18.9394C3.41188 20.3045 4.51188 21.4161 5.86286 21.4161H8.80404C9.61678 21.4161 10.2746 22.0808 10.2746 22.9021ZM24.0001 17.9487C24.0001 21.5052 21.1472 24.3881 17.6276 24.3881C14.108 24.3881 11.255 21.5052 11.255 17.9487C11.255 14.3922 14.108 11.5093 17.6276 11.5093C21.1472 11.5093 24.0001 14.3922 24.0001 17.9487ZM19.9256 18.1696L19.0982 17.3335V15.9674C19.0982 15.1471 18.4393 14.4813 17.6276 14.4813C16.8158 14.4813 16.157 15.1471 16.157 15.9674V17.7436C16.157 18.2687 16.3638 18.773 16.7315 19.1445L17.8462 20.2709C18.4207 20.8514 19.3511 20.8514 19.9256 20.2709C20.5001 19.6903 20.5001 18.7502 19.9256 18.1696Z" fill="#D6A67B"/>
</g>
<defs>
<clipPath id="clip0_1000_96">
<rect width="23.5294" height="23.7762" fill="white" transform="translate(0.470703 0.611877)"/>
</clipPath>
</defs>
</svg>
