<svg width="41" height="40" viewBox="0 0 41 40" fill="none" xmlns="http://www.w3.org/2000/svg">
<g clip-path="url(#clip0_908_780)">
<path d="M37.8083 11.0217C36.0717 9.28504 33.7733 8.33004 31.33 8.33004H30.4617C30.27 6.1967 29.3483 4.21504 27.815 2.6817C26.0833 0.950037 23.7817 -0.0032959 21.3333 -0.0032959H9.66667C7.225 -0.0032959 4.925 0.951704 3.18833 2.68837C1.45333 4.42337 0.5 6.72504 0.5 9.16837L0.506667 28.5417C0.51 30.2584 1.90667 31.6567 3.62 31.6567C3.92667 31.6567 4.23 31.6117 4.52333 31.5217C4.60333 31.4967 10.6183 28.9784 10.6183 28.9784C11.3283 33.33 15.115 36.6634 19.665 36.6634H28.8317C28.8317 36.6634 36.3933 39.83 36.4733 39.855C36.7667 39.945 37.07 39.99 37.3767 39.99C39.0933 39.99 40.4883 38.59 40.4883 36.8717L40.4967 17.5017C40.4967 15.0584 39.5433 12.7567 37.8083 11.0217ZM5.5 9.16504C5.5 8.06004 5.935 7.01504 6.725 6.22337C7.515 5.4317 8.56 4.9967 9.66667 4.9967H21.3333C22.4467 4.9967 23.4933 5.43004 24.28 6.2167C25.0667 7.00337 25.5 8.0517 25.5 9.16504V19.1634C25.5 21.4617 23.63 23.33 21.3333 23.33H11.6633C11.3317 23.33 11.0033 23.3967 10.6967 23.525L5.50833 25.7017L5.5 9.16504ZM35.49 34.035L30.3017 31.8584C29.995 31.73 29.6667 31.6634 29.335 31.6634H19.665C17.6533 31.6634 15.97 30.23 15.5817 28.33H21.3317C26.3867 28.33 30.4983 24.2167 30.4983 19.1634V13.33H31.33C32.4367 13.33 33.4817 13.7667 34.2717 14.5567C35.0633 15.3484 35.4983 16.3934 35.4967 17.4984L35.49 34.035Z" fill="#F5F9FE"/>
</g>
<defs>
<clipPath id="clip0_908_780">
<rect width="40" height="40" fill="white" transform="translate(0.5)"/>
</clipPath>
</defs>
</svg>
