<svg width="41" height="40" viewBox="0 0 41 40" fill="none" xmlns="http://www.w3.org/2000/svg">
<g clip-path="url(#clip0_908_764)">
<path d="M37.0684 8.39337C37.0001 8.35337 25.0918 2.85673 25.0918 2.85673C22.2321 1.28181 18.7648 1.28181 15.9052 2.85673C15.9052 2.85673 3.99852 8.35337 3.92852 8.39337C0.740006 10.1291 -0.437728 14.121 1.29797 17.3095C1.90321 18.4214 2.81665 19.3348 3.92852 19.9401C3.99852 19.9801 8.83188 22.2134 8.83188 22.2134V30.0918C8.83657 33.4852 11.0463 36.4816 14.2869 37.4884C16.3052 38.0714 18.3979 38.356 20.4985 38.3334C22.5992 38.356 24.6919 38.0714 26.7102 37.4884C29.9507 36.4815 32.1605 33.4851 32.1652 30.0918V22.2134L35.4984 20.6766V32.5C35.4984 33.8807 36.6177 35 37.9984 35C39.3791 35 40.4984 33.8807 40.4984 32.5V14.1017C40.4323 11.6441 39.2579 9.46001 37.0684 8.39337ZM27.1651 30.0916C27.1712 31.2827 26.403 32.3396 25.2684 32.7016C22.1437 33.54 18.8532 33.54 15.7284 32.7016C14.5938 32.3396 13.8257 31.2827 13.8318 30.0916V24.52L15.9052 25.4767C18.7638 27.0557 22.2331 27.0557 25.0918 25.4767L27.1652 24.52V30.0916H27.1651ZM34.6401 15.5666C34.6401 15.5666 22.7584 21.05 22.6917 21.09C21.3318 21.8634 19.665 21.8634 18.3051 21.09C18.2384 21.05 6.35672 15.5666 6.35672 15.5666C5.58352 15.1722 5.27649 14.2256 5.67094 13.4524C5.82149 13.1573 6.06157 12.9173 6.35672 12.7666C6.35672 12.7666 18.2384 7.28329 18.3051 7.24329C19.665 6.46985 21.3318 6.46985 22.6917 7.24329C22.7584 7.28329 34.6401 12.7666 34.6401 12.7666C35.4133 13.1611 35.7203 14.1077 35.3259 14.8809C35.1753 15.1761 34.9352 15.4161 34.6401 15.5666Z" fill="#F5F9FE"/>
</g>
<defs>
<clipPath id="clip0_908_764">
<rect width="40" height="40" fill="white" transform="translate(0.5)"/>
</clipPath>
</defs>
</svg>
