<svg width="41" height="40" viewBox="0 0 41 40" fill="none" xmlns="http://www.w3.org/2000/svg">
<g clip-path="url(#clip0_908_756)">
<path d="M31.3333 15.8333C31.9964 15.8333 32.6323 15.5699 33.1011 15.1011C33.5699 14.6323 33.8333 13.9964 33.8333 13.3333V12.1883C33.8302 9.84079 32.8963 7.59028 31.2363 5.93031C29.5764 4.27035 27.3259 3.33642 24.9783 3.33333H23V2.5C23 1.83696 22.7366 1.20107 22.2678 0.732233C21.7989 0.263392 21.163 0 20.5 0C19.837 0 19.2011 0.263392 18.7322 0.732233C18.2634 1.20107 18 1.83696 18 2.5V3.33333H16.0217C13.8958 3.33016 11.8397 4.0919 10.2291 5.47939C8.61843 6.86688 7.56069 8.78751 7.2491 10.8904C6.9375 12.9933 7.39285 15.1382 8.53195 16.9331C9.67105 18.728 11.4179 20.0532 13.4533 20.6667L18 21.91V31.6667H16.0217C14.9997 31.6653 14.0199 31.2588 13.2972 30.5361C12.5746 29.8134 12.168 28.8337 12.1667 27.8117V26.6667C12.1667 26.0036 11.9033 25.3677 11.4344 24.8989C10.9656 24.4301 10.3297 24.1667 9.66666 24.1667C9.00362 24.1667 8.36773 24.4301 7.89889 24.8989C7.43005 25.3677 7.16666 26.0036 7.16666 26.6667V27.8117C7.16975 30.1592 8.10367 32.4097 9.76364 34.0697C11.4236 35.7297 13.6741 36.6636 16.0217 36.6667H18V37.5C18 38.163 18.2634 38.7989 18.7322 39.2678C19.2011 39.7366 19.837 40 20.5 40C21.163 40 21.7989 39.7366 22.2678 39.2678C22.7366 38.7989 23 38.163 23 37.5V36.6667H24.9783C27.1042 36.6698 29.1603 35.9081 30.7709 34.5206C32.3816 33.1331 33.4393 31.2125 33.7509 29.1096C34.0625 27.0067 33.6071 24.8618 32.468 23.0669C31.3289 21.272 29.5821 19.9468 27.5467 19.3333L23 18.0933V8.33333H24.9783C26.0003 8.33466 26.9801 8.74123 27.7028 9.4639C28.4254 10.1866 28.832 11.1663 28.8333 12.1883V13.3333C28.8333 13.9964 29.0967 14.6323 29.5656 15.1011C30.0344 15.5699 30.6703 15.8333 31.3333 15.8333ZM26.1367 24.1317C27.0159 24.4087 27.7668 24.9916 28.2533 25.7747C28.7399 26.5577 28.9298 27.4891 28.7887 28.4001C28.6477 29.3111 28.185 30.1415 27.4844 30.7407C26.7839 31.34 25.8919 31.6685 24.97 31.6667H23V23.275L26.1367 24.1317ZM18 16.725L14.8633 15.8683C13.9848 15.5915 13.2343 15.0093 12.7478 14.2271C12.2612 13.445 12.0707 12.5145 12.2106 11.604C12.3506 10.6936 12.8118 9.86326 13.5108 9.26335C14.2099 8.66344 15.1005 8.33354 16.0217 8.33333H18V16.725Z" fill="#F5F9FE"/>
</g>
<defs>
<clipPath id="clip0_908_756">
<rect width="40" height="40" fill="white" transform="translate(0.5)"/>
</clipPath>
</defs>
</svg>
