<svg width="24" height="25" viewBox="0 0 24 25" fill="none" xmlns="http://www.w3.org/2000/svg">
<g clip-path="url(#clip0_951_26)">
<path d="M11.9991 0.5C8.81754 0.503441 5.76729 1.76883 3.5176 4.01852C1.2679 6.26821 0.00251758 9.31846 -0.000923504 12.5C-0.125924 22.074 11.1581 27.929 18.8991 22.317C19.0613 22.2041 19.1996 22.0602 19.3061 21.8937C19.4125 21.7271 19.485 21.5412 19.5194 21.3465C19.5537 21.1519 19.5493 20.9523 19.5062 20.7594C19.4632 20.5665 19.3825 20.384 19.2687 20.2223C19.1549 20.0607 19.0103 19.9232 18.8432 19.8176C18.6761 19.7121 18.4897 19.6406 18.2949 19.6073C18.1 19.574 17.9006 19.5795 17.7079 19.6236C17.5152 19.6676 17.3331 19.7493 17.1721 19.864C11.4191 24.082 2.86208 19.646 2.99908 12.5C3.47108 0.57 20.5281 0.572 20.9991 12.5V14C20.9991 14.3978 20.841 14.7794 20.5597 15.0607C20.2784 15.342 19.8969 15.5 19.4991 15.5C19.1013 15.5 18.7197 15.342 18.4384 15.0607C18.1571 14.7794 17.9991 14.3978 17.9991 14V12.5C17.7471 4.571 6.25008 4.572 5.99908 12.5C6.00906 13.6628 6.35579 14.7978 6.99731 15.7677C7.63883 16.7376 8.54765 17.5009 9.61384 17.9651C10.68 18.4293 11.8579 18.5746 13.0049 18.3835C14.152 18.1923 15.2191 17.6729 16.0771 16.888C16.6727 17.5856 17.4673 18.0844 18.3544 18.3178C19.2415 18.5511 20.1787 18.5078 21.0405 18.1937C21.9023 17.8795 22.6475 17.3095 23.1762 16.56C23.705 15.8104 23.9921 14.9172 23.9991 14V12.5C23.9956 9.31846 22.7302 6.26821 20.4806 4.01852C18.2309 1.76883 15.1806 0.503441 11.9991 0.5ZM11.9991 15.5C11.2034 15.5 10.4404 15.1839 9.87776 14.6213C9.31515 14.0587 8.99908 13.2956 8.99908 12.5C8.99908 11.7044 9.31515 10.9413 9.87776 10.3787C10.4404 9.81607 11.2034 9.5 11.9991 9.5C12.7947 9.5 13.5578 9.81607 14.1204 10.3787C14.683 10.9413 14.9991 11.7044 14.9991 12.5C14.9991 13.2956 14.683 14.0587 14.1204 14.6213C13.5578 15.1839 12.7947 15.5 11.9991 15.5Z" fill="#D6A67B"/>
</g>
<defs>
<clipPath id="clip0_951_26">
<rect width="24" height="24" fill="white" transform="translate(0 0.5)"/>
</clipPath>
</defs>
</svg>
