<svg width="24" height="25" viewBox="0 0 24 25" fill="none" xmlns="http://www.w3.org/2000/svg">
<path d="M22.5 11H1.5C0.671578 11 0 11.6716 0 12.5C0 13.3284 0.671578 14 1.5 14H22.5C23.3284 14 24 13.3284 24 12.5C24 11.6716 23.3284 11 22.5 11Z" fill="#F5F9FE"/>
<path d="M1.5 7.00002H22.5C23.3284 7.00002 24 6.32844 24 5.50002C24 4.67159 23.3284 4.00002 22.5 4.00002H1.5C0.671578 4.00002 0 4.67159 0 5.50002C0 6.32844 0.671578 7.00002 1.5 7.00002Z" fill="#F5F9FE"/>
<path d="M22.5 18H1.5C0.671578 18 0 18.6716 0 19.5C0 20.3284 0.671578 21 1.5 21H22.5C23.3284 21 24 20.3284 24 19.5C24 18.6716 23.3284 18 22.5 18Z" fill="#F5F9FE"/>
</svg>
