<svg width="25" height="24" viewBox="0 0 25 24" fill="none" xmlns="http://www.w3.org/2000/svg">
<g clip-path="url(#clip0_871_3002)">
<path d="M24.444 12.6792L21.413 4.01222C20.993 2.80925 19.854 2.0006 18.581 2.0006H13.5V1.00079C13.494 -0.308268 11.505 -0.307268 11.5 1.00079V2.0016H6.419C5.146 2.0016 4.007 2.81025 3.587 4.01222L0.556 12.6792C0.519 12.7853 0.5 13.3117 0.5 13.3117C0.5 15.8198 2.371 17.8824 4.76 18.0075C6.001 18.0766 7.194 17.6362 8.098 16.7775C8.99 15.9308 9.5 14.7399 9.5 13.5109C9.5 13.5109 9.479 12.7783 9.439 12.6682L6.294 4.01122C6.335 4.00621 6.377 4.00321 6.419 4.00321H11.5V22.0178H5.5C4.192 22.0238 4.193 24.0144 5.5 24.0194H19.5C20.808 24.0134 20.807 22.0228 19.5 22.0178H13.5V4.00321H18.581C18.623 4.00321 18.665 4.00521 18.706 4.01122L15.56 12.6682C15.52 12.7773 15.499 13.5109 15.499 13.5109C15.499 14.7409 16.01 15.9308 16.901 16.7775C19.71 19.4807 24.549 17.5301 24.499 13.3127C24.499 13.3127 24.48 12.7863 24.443 12.6802L24.444 12.6792ZM7.072 12.0097H2.909L4.951 6.17196L7.072 12.0097ZM20.049 6.17196L22.091 12.0097H17.928L20.049 6.17196Z" fill="#F5F9FE"/>
</g>
<defs>
<clipPath id="clip0_871_3002">
<rect width="24" height="24" fill="white" transform="translate(0.5)"/>
</clipPath>
</defs>
</svg>
