<svg width="24" height="13" viewBox="0 0 24 13" fill="none" xmlns="http://www.w3.org/2000/svg">
<path d="M1.95172 0.63427C2.14484 0.634005 2.3361 0.672876 2.51447 0.74864C2.69283 0.824403 2.85477 0.93556 2.99094 1.0757L10.5135 8.77258C10.7411 9.00554 11.0113 9.19035 11.3087 9.31643C11.6061 9.44252 11.9249 9.50742 12.2468 9.50742C12.5687 9.50742 12.8875 9.44252 13.1849 9.31643C13.4823 9.19035 13.7526 9.00554 13.9802 8.77258L21.4909 1.08573C21.6266 0.941999 21.7889 0.827355 21.9683 0.748487C22.1477 0.669619 22.3407 0.628105 22.5359 0.626369C22.7312 0.624633 22.9248 0.662708 23.1056 0.738374C23.2863 0.81404 23.4505 0.925781 23.5886 1.06708C23.7267 1.20837 23.8359 1.37639 23.9098 1.56134C23.9837 1.74628 24.0209 1.94444 24.0192 2.14425C24.0176 2.34407 23.977 2.54154 23.8999 2.72514C23.8228 2.90873 23.7108 3.07479 23.5704 3.21361L16.0596 10.9005C15.0477 11.934 13.6765 12.5144 12.2468 12.5144C10.8172 12.5144 9.44593 11.934 8.43408 10.9005L0.911528 3.20358C0.705728 2.99311 0.565561 2.72491 0.508763 2.43291C0.451965 2.1409 0.481088 1.83822 0.592449 1.56316C0.703809 1.28809 0.892401 1.05302 1.13436 0.887668C1.37632 0.72232 1.66077 0.634135 1.95172 0.63427Z" fill="#D6A67B"/>
</svg>
