<svg width="24" height="23" viewBox="0 0 24 23" fill="none" xmlns="http://www.w3.org/2000/svg">
<path d="M0.526837 3.8551C0.745854 2.11844 2.99698 -0.24186 4.78352 0.0200432L4.78066 0.0171806C6.5193 0.348436 7.89562 3.3487 8.6717 4.69778C9.22159 5.67662 8.86451 6.66835 8.35161 7.08683C7.6597 7.64595 6.57772 8.41744 6.80473 9.19206C7.20832 10.5691 12 15.3733 14.3567 16.739C15.2487 17.2559 15.8956 15.8925 16.448 15.194C16.8493 14.6567 17.8393 14.3356 18.8133 14.866C20.2681 15.7153 21.6385 16.7025 22.9058 17.8138C23.5387 18.3442 23.6872 19.128 23.2487 19.9564C22.4763 21.4155 20.2422 23.3397 18.6205 22.9486C15.7881 22.2659 4.33333 17.8138 0.653969 4.91562C0.447046 4.30544 0.499141 4.07476 0.526837 3.8551Z" fill="#D6A67B"/>
</svg>
