<svg width="41" height="40" viewBox="0 0 41 40" fill="none" xmlns="http://www.w3.org/2000/svg">
<g clip-path="url(#clip0_908_748)">
<path d="M40.5 37.5C40.5 38.1631 40.2366 38.7989 39.7678 39.2678C39.2989 39.7366 38.663 40 38 40H3C2.33696 40 1.70107 39.7366 1.23223 39.2678C0.763392 38.7989 0.5 38.1631 0.5 37.5C0.5 36.837 0.763392 36.2011 1.23223 35.7323C1.70107 35.2634 2.33696 35 3 35H38C38.663 35 39.2989 35.2634 39.7678 35.7323C40.2366 36.2011 40.5 36.837 40.5 37.5ZM1.11667 15.5684C0.679581 14.765 0.46887 13.858 0.50703 12.9442C0.54519 12.0304 0.830788 11.1442 1.33333 10.38C2.08492 9.2254 3.10589 8.27078 4.30833 7.59835L16.24 1.08669C17.5456 0.370387 19.0108 -0.00512695 20.5 -0.00512695C21.9892 -0.00512695 23.4544 0.370387 24.76 1.08669L36.6933 7.59835C37.8945 8.27038 38.9148 9.22375 39.6667 10.3767C40.1705 11.1407 40.4575 12.0272 40.4968 12.9416C40.5361 13.856 40.3264 14.7639 39.89 15.5684C39.4616 16.3698 38.8311 17.0452 38.061 17.5276C37.2909 18.01 36.408 18.2826 35.5 18.3184V26.6667H36.3333C36.9964 26.6667 37.6323 26.9301 38.1011 27.3989C38.5699 27.8678 38.8333 28.5036 38.8333 29.1667C38.8333 29.8297 38.5699 30.4656 38.1011 30.9345C37.6323 31.4033 36.9964 31.6667 36.3333 31.6667H4.66667C4.00363 31.6667 3.36774 31.4033 2.8989 30.9345C2.43006 30.4656 2.16667 29.8297 2.16667 29.1667C2.16667 28.5036 2.43006 27.8678 2.8989 27.3989C3.36774 26.9301 4.00363 26.6667 4.66667 26.6667H5.5V18.3184C4.59313 18.2815 3.71163 18.0084 2.94279 17.526C2.17396 17.0437 1.54447 16.3688 1.11667 15.5684ZM10.5 26.6667H13.8333V18.3334H10.5V26.6667ZM18.8333 18.3334V26.6667H22.1667V18.3334H18.8333ZM30.5 26.6667V18.3334H27.1667V26.6667H30.5ZM5.5 13.145C5.51003 13.1963 5.537 13.2428 5.57659 13.2769C5.61619 13.3111 5.6661 13.331 5.71833 13.3334H35.2817C35.3339 13.3294 35.3835 13.3086 35.4229 13.274C35.4622 13.2394 35.4893 13.193 35.5 13.1417C35.196 12.6674 34.7843 12.2716 34.2983 11.9867L22.365 5.47669C21.7939 5.16347 21.153 4.99928 20.5017 4.99928C19.8503 4.99928 19.2094 5.16347 18.6383 5.47669L6.70333 11.9867C6.21462 12.27 5.80175 12.6675 5.5 13.145Z" fill="#F5F9FE"/>
</g>
<defs>
<clipPath id="clip0_908_748">
<rect width="40" height="40" fill="white" transform="translate(0.5)"/>
</clipPath>
</defs>
</svg>
