<svg width="41" height="40" viewBox="0 0 41 40" fill="none" xmlns="http://www.w3.org/2000/svg">
<g clip-path="url(#clip0_908_772)">
<path d="M17.1667 37.5C17.1667 38.88 16.0467 40 14.6667 40H9.66667C4.61333 40 0.5 35.8867 0.5 30.8333V9.16667C0.5 4.11333 4.61333 0 9.66667 0H21.3333C26.3867 0 30.5 4.11333 30.5 9.16667V12.5C30.5 13.88 29.38 15 28 15C26.62 15 25.5 13.88 25.5 12.5V9.16667C25.5 6.86833 23.6317 5 21.3333 5H9.66667C7.36833 5 5.5 6.86833 5.5 9.16667V30.8333C5.5 33.1317 7.36833 35 9.66667 35H14.6667C16.0467 35 17.1667 36.12 17.1667 37.5ZM11.3333 8.33333C9.95333 8.33333 8.83333 9.45333 8.83333 10.8333C8.83333 12.2133 9.95333 13.3333 11.3333 13.3333H19.6667C21.0467 13.3333 22.1667 12.2133 22.1667 10.8333C22.1667 9.45333 21.0467 8.33333 19.6667 8.33333H11.3333ZM16.3333 16.6667H11.3333C9.95333 16.6667 8.83333 17.7867 8.83333 19.1667C8.83333 20.5467 9.95333 21.6667 11.3333 21.6667H16.3333C17.7133 21.6667 18.8333 20.5467 18.8333 19.1667C18.8333 17.7867 17.7133 16.6667 16.3333 16.6667ZM13 30C14.38 30 15.5 28.88 15.5 27.5C15.5 26.12 14.38 25 13 25H11.3333C9.95333 25 8.83333 26.12 8.83333 27.5C8.83333 28.88 9.95333 30 11.3333 30H13ZM40.5 29.1667C40.5 35.15 35.65 40 29.6667 40C23.6833 40 18.8333 35.15 18.8333 29.1667C18.8333 23.1833 23.6833 18.3333 29.6667 18.3333C35.65 18.3333 40.5 23.1833 40.5 29.1667ZM36.3333 25.8333C35.3683 24.8467 33.7867 24.8283 32.7983 25.7933L28.8283 29.6717L27.3683 28.2667C26.3733 27.3083 24.79 27.34 23.8333 28.335C22.8767 29.33 22.9067 30.9117 23.9017 31.87L25.8883 33.7817C26.7033 34.5967 27.775 35.0017 28.8417 35.0017C29.9017 35.0017 30.96 34.6017 31.76 33.8L36.2933 29.37C37.2817 28.405 37.2983 26.8217 36.3333 25.8333Z" fill="#F5F9FE"/>
</g>
<defs>
<clipPath id="clip0_908_772">
<rect width="40" height="40" fill="white" transform="translate(0.5)"/>
</clipPath>
</defs>
</svg>
