<svg width="20" height="20" viewBox="0 0 20 20" fill="none" xmlns="http://www.w3.org/2000/svg">
<path d="M9.07668 0.719928C9.41827 -0.101365 10.5817 -0.101364 10.9233 0.719929L12.9395 5.56735C13.0835 5.91358 13.4091 6.15015 13.7829 6.18012L19.0161 6.59966C19.9027 6.67074 20.2623 7.77725 19.5867 8.35592L15.5996 11.7713C15.3148 12.0153 15.1904 12.3981 15.2774 12.7628L16.4956 17.8695C16.702 18.7348 15.7607 19.4186 15.0016 18.955L10.5213 16.2184C10.2012 16.0229 9.79876 16.0229 9.47875 16.2184L4.9984 18.955C4.2393 19.4186 3.29805 18.7348 3.50444 17.8695L4.72257 12.7628C4.80958 12.3981 4.68521 12.0153 4.40042 11.7713L0.413277 8.35592C-0.26226 7.77725 0.0972673 6.67074 0.983922 6.59966L6.21712 6.18012C6.59091 6.15015 6.91652 5.91358 7.06052 5.56735L9.07668 0.719928Z" fill="#D0B040"/>
</svg>
