<svg width="20" height="19" viewBox="0 0 20 19" fill="none" xmlns="http://www.w3.org/2000/svg">
<path d="M9.06561 0.93088C9.39286 0.0725456 10.6071 0.0725454 10.9344 0.93088L12.6864 5.52604C12.8229 5.88406 13.1519 6.13261 13.5336 6.16599L18.2272 6.57648C19.0893 6.65188 19.4551 7.71245 18.8228 8.30331L15.1234 11.7603C14.8657 12.0012 14.7539 12.36 14.8293 12.7046L15.9368 17.7697C16.1289 18.6484 15.1539 19.3142 14.4054 18.8155L10.5545 16.2496C10.2187 16.0258 9.78131 16.0258 9.4455 16.2496L5.59463 18.8155C4.84614 19.3142 3.87108 18.6484 4.06321 17.7697L5.17074 12.7046C5.24609 12.36 5.13431 12.0012 4.87659 11.7603L1.17717 8.30332C0.54488 7.71245 0.910707 6.65188 1.77281 6.57648L6.46638 6.16599C6.84808 6.13261 7.17714 5.88406 7.31364 5.52604L9.06561 0.93088Z" fill="#F5F9FE" fill-opacity="0.2"/>
</svg>
