<svg width="240" height="240" viewBox="0 0 240 240" fill="none" xmlns="http://www.w3.org/2000/svg">
<path d="M120 0C53.83 0 0 53.83 0 120C0 186.17 53.83 240 120 240C186.17 240 240 186.17 240 120C240 53.83 186.17 0 120 0ZM182 105.12L137.74 148.57C129.91 156.25 119.83 160.08 109.74 160.08C99.76 160.08 89.78 156.32 81.98 148.79L62.99 130.12C59.05 126.25 59 119.92 62.87 115.98C66.73 112.03 73.08 111.98 77.01 115.86L95.94 134.47C103.7 141.97 115.95 141.93 123.75 134.29L168 90.85C171.93 86.97 178.24 87.04 182.14 90.98C186.01 94.92 185.95 101.25 182 105.12Z" fill="#089F20"/>
</svg>
