<svg width="24" height="25" viewBox="0 0 24 25" fill="none" xmlns="http://www.w3.org/2000/svg">
<path d="M12 24.5C5.383 24.5 0 19.117 0 12.5C0 5.883 5.383 0.5 12 0.5C18.617 0.5 24 5.883 24 12.5C24 19.117 18.617 24.5 12 24.5ZM12 3.5C7.038 3.5 3 7.537 3 12.5C3 17.463 7.038 21.5 12 21.5C16.962 21.5 21 17.463 21 12.5C21 7.537 16.963 3.5 12 3.5ZM17 13C17 12.172 16.328 11.5 15.5 11.5H13V7C13 6.172 12.329 5.5 11.5 5.5C10.671 5.5 10 6.172 10 7V13C10 13.828 10.671 14.5 11.5 14.5H15.5C16.328 14.5 17 13.828 17 13Z" fill="#D6A67B"/>
</svg>
