<svg width="41" height="40" viewBox="0 0 41 40" fill="none" xmlns="http://www.w3.org/2000/svg">
<g clip-path="url(#clip0_908_788)">
<path d="M13.85 18.3333C12.9333 18.3333 12.1833 17.5833 12.1833 16.6666H11.7333C9.95 16.6666 8.3 15.7166 7.4 14.1666C6.93333 13.3666 7.21667 12.3499 8.01667 11.8833C8.81667 11.4166 9.83333 11.6999 10.3 12.4833C10.6 12.9999 11.15 13.3166 11.75 13.3166H16.15C16.7167 13.3166 17.1833 12.8499 17.1833 12.2833C17.1833 11.7666 16.8167 11.3333 16.3167 11.2499L10.8333 10.3333C8.71667 9.98328 7.18333 8.16661 7.18333 6.01661C7.18333 3.59994 9.15 1.64994 11.55 1.64994H12.1833C12.1833 0.733276 12.9333 -0.0167236 13.85 -0.0167236C14.7667 -0.0167236 15.5167 0.733276 15.5167 1.64994H15.9667C17.75 1.64994 19.4 2.59994 20.3 4.14994C20.7667 4.94994 20.4833 5.96661 19.7 6.43328C18.9 6.89994 17.8833 6.61661 17.4167 5.83328C17.1167 5.31661 16.5667 4.99994 15.9667 4.99994H11.5667C11 4.99994 10.5333 5.46661 10.5333 6.03328C10.5333 6.54994 10.9 6.96661 11.4 7.06661L16.8833 7.98328C19 8.33328 20.5333 10.1499 20.5333 12.2999C20.5333 14.7166 18.5667 16.6666 16.1667 16.6666H15.5333C15.5333 17.5833 14.7833 18.3333 13.8667 18.3333H13.85ZM38.8667 24.1166L30.2 34.0166C26.8833 37.8166 22.0667 39.9999 17.0167 39.9999H8.01667C3.86667 39.9999 0.5 36.6333 0.5 32.4999V25.8333C0.5 21.6999 3.86667 18.3333 8.01667 18.3333H21.1167C22.6833 18.3333 24.1167 18.9333 25.2 19.9166L29.2667 15.4499C30.4333 14.1666 32.0167 13.4166 33.75 13.3499C35.4667 13.2666 37.1333 13.8666 38.4167 15.0333C41.0333 17.4166 41.2333 21.4833 38.8833 24.1333L38.8667 24.1166ZM35.0333 18.7166C34.75 18.4499 34.3667 18.3333 33.9667 18.3333C33.5667 18.3499 33.2167 18.5166 32.95 18.8166L27.1167 25.2166C26.75 27.8666 24.65 30.0166 21.9667 30.4166L13.3667 31.6499C12 31.8333 10.7333 30.8999 10.5333 29.5333C10.3333 28.1666 11.2833 26.8999 12.65 26.6999L21.25 25.4666C21.7667 25.3999 22.1667 24.9333 22.1667 24.4166C22.1667 23.8333 21.6833 23.3499 21.1 23.3499H8.01667C6.63333 23.3499 5.51667 24.4666 5.51667 25.8499V32.5166C5.51667 33.8999 6.63333 35.0166 8.01667 35.0166H17.0333C20.6333 35.0166 24.0667 33.4666 26.45 30.7499L35.1333 20.8333C35.6833 20.2166 35.6333 19.2833 35.05 18.7499L35.0333 18.7166Z" fill="#F5F9FE"/>
</g>
<defs>
<clipPath id="clip0_908_788">
<rect width="40" height="40" fill="white" transform="translate(0.5)"/>
</clipPath>
</defs>
</svg>
